<?xml version="1.0" standalone="no"?>
<!DOCTYPE svg PUBLIC "-//W3C//DTD SVG 1.0//EN" "http://www.w3.org/TR/2001/REC-SVG-20010904/DTD/svg10.dtd">
<svg xmlns="http://www.w3.org/2000/svg" xmlns:xlink="http://www.w3.org/1999/xlink" id="body_1" width="51" height="51">

<g transform="matrix(0.099609375 0 0 0.099609375 0 0)">
	<g>
		<g>
			<g>
				<g>
					<g>
						<g>
							<g>
								<g>
									<g>
										<g>
                                            <path d="M200.438 505.954C 85.767006 480.578 0 378.305 0 256C 0 229.913 3.902 204.738 11.154 181.026L11.154 181.026L66.947 83.386C 113.757996 32.145 181.125 0 256 0C 320.966 0 380.28 24.2 425.419 64.076L425.419 64.076L490.90802 154.082C 504.47702 185.313 512 219.778 512 256C 512 378.267 426.286 480.514 311.669 505.93L311.669 505.93L200.438 505.954z" stroke="none" fill="#FFCE00" fill-rule="nonzero" />
										</g>
									</g>
								</g>
							</g>
						</g>
					</g>
				</g>
			</g>
		</g>
        <path d="M512 256C 512 219.778 504.477 185.313 490.909 154.082L490.909 154.082L205.91998 197.675L141.19098 137.99901L55.470978 248.49701L223.25998 416.286L187.17697 445.461L247.65897 505.943L311.66898 505.929C 426.28598 480.51398 511.99997 378.26697 511.99997 255.99998L511.99997 255.99998L512 256z" stroke="none" fill="#FFA300" fill-rule="nonzero" />
		<g>
            <path d="M490.908 154.082C 475.85098 119.423996 453.348 88.75 425.419 64.077C 395.686 87.482 360.642 115.069 360.642 115.069C 360.63 115.078 360.61398 115.08 360.602 115.073C 345.942 107.374 327.487 108.455 313.65698 119.341995L313.65698 119.341995L234.94998 181.29999C 227.35098 187.28198 225.54498 198.29099 231.27098 206.08499C 237.27399 214.254 248.77498 215.75299 256.65497 209.551L256.65497 209.551L297.85596 177.117C 297.87595 177.11801 297.88895 177.119 297.90897 177.121L297.90897 177.121L301.35297 180.921C 317.25296 198.46501 343.22797 202.18701 363.29095 190.75801L363.29095 190.75801L370.27695 199.47601C 347.05795 213.60402 316.81696 210.66301 296.81396 192.06801C 296.79495 192.067 296.78397 192.067 296.76495 192.06601L296.76495 192.06601L263.01596 218.63301C 262.67896 218.89902 262.33698 219.154 261.98996 219.39801C 253.17397 225.615 238.11896 226.184 229.60696 218.22002C 229.58496 218.19902 225.29396 212.74101 225.29396 212.74101L225.29396 212.74101L147.66196 273.85303C 140.29996 279.64804 139.02995 290.31503 144.82495 297.67703C 150.61995 305.03903 161.28696 306.30902 168.64896 300.51303L168.64896 300.51303L251.41495 235.36003L255.39494 240.41603L166.12294 310.69003C 158.89494 316.38004 157.16293 326.84705 162.59294 334.27304C 168.29294 342.06903 179.26694 343.52505 186.79094 337.60303L186.79094 337.60303L282.45795 262.29404L285.75894 266.48804L211.21994 325.16403C 204.28894 330.62003 203.09393 340.66104 208.54893 347.59204C 214.00493 354.52304 224.04593 355.71805 230.97594 350.26205L230.97594 350.26205L313.10992 285.60605L316.41092 289.80005L261.08093 333.35504C 255.11194 338.05405 253.88794 346.93005 258.69794 352.81003C 263.36194 358.51303 271.75494 359.45102 277.56894 354.87402L277.56894 354.87402L412.36194 248.49802C 424.79593 236.79802 430.11194 219.97601 427.61395 203.932C 427.61194 203.918 427.61694 203.90501 427.62796 203.89601C 427.62997 203.895 461.18796 177.47801 490.90796 154.08202L490.90796 154.08202L490.908 154.082z" stroke="none" fill="#FFEEE5" fill-rule="nonzero" />
		</g>
		<g>
            <path d="M255.818 345.757L255.818 343.035C 255.72899 343.941 255.72899 344.851 255.818 345.757z" stroke="none" fill="#FFDECF" fill-rule="nonzero" />
            <path d="M211.221 325.163C 204.29 330.619 203.09499 340.66 208.54999 347.591C 214.00598 354.522 224.04698 355.717 230.97699 350.26102L230.97699 350.26102L255.81699 330.70703L255.81699 290.05704L211.221 325.163z" stroke="none" fill="#FFDECF" fill-rule="nonzero" />
            <path d="M427.63 203.895C 427.63 203.895 461.188 177.478 490.909 154.082C 475.852 119.423996 453.349 88.75 425.41998 64.077C 395.68698 87.482 360.64297 115.069 360.64297 115.069C 360.63098 115.078 360.61496 115.08 360.60297 115.073C 345.94296 107.374 327.48798 108.455 313.65796 119.341995L313.65796 119.341995L255.81895 164.87299L255.81895 210.14299C 256.09897 209.94798 256.38394 209.76498 256.65594 209.551L256.65594 209.551L297.85693 177.117C 297.87692 177.11801 297.88992 177.119 297.90994 177.121L297.90994 177.121L301.35394 180.921C 317.25394 198.46501 343.22894 202.18701 363.29193 190.75801L363.29193 190.75801L370.27792 199.47601C 347.05893 213.60402 316.81793 210.66301 296.81494 192.06801C 296.79593 192.067 296.78494 192.067 296.76593 192.06601L296.76593 192.06601L263.01694 218.63301C 262.67993 218.89902 262.33795 219.154 261.99094 219.39801C 260.16592 220.68501 258.06494 221.714 255.81793 222.492L255.81793 222.492L255.81793 283.265L282.45892 262.294L285.75992 266.488L255.81792 290.058L255.81792 330.708L313.1119 285.60602L316.4129 289.80002L261.0829 333.355C 257.98688 335.79202 256.18088 339.353 255.81789 343.036L255.81789 343.036L255.81789 345.758C 256.0659 348.271 256.9979 350.728 258.6999 352.809C 263.3639 358.512 271.7569 359.44998 277.5709 354.873L277.5709 354.873L412.3639 248.49698C 424.79788 236.79698 430.1139 219.97498 427.6159 203.93097C 427.6129 203.91696 427.6189 203.90398 427.6299 203.89497L427.6299 203.89497L427.63 203.895z" stroke="none" fill="#FFDECF" fill-rule="nonzero" />
		</g>
		<g>
            <path d="M320.175 300.603C 310.043 300.267 301.75098 308.376 301.75098 318.405L301.75098 318.405L301.75098 370.841C 301.73697 370.85602 301.72797 370.865 301.71497 370.88L301.71497 370.88L296.59897 371.236C 272.97897 372.878 253.98798 390.986 250.55896 413.819L250.55896 413.819L239.38696 413.916C 242.64796 386.93198 263.66498 364.99 290.64795 360.775C 290.65994 360.75998 290.66794 360.75198 290.67996 360.738L290.67996 360.738L290.67996 317.786C 290.67996 317.35703 290.69095 316.93002 290.71295 316.50702C 291.28094 305.734 300.14597 293.553 311.66995 291.79C 311.69995 291.786 318.64294 291.79 318.64294 291.79L318.64294 291.79L318.64294 192.99C 318.64294 183.62001 311.04694 176.02501 301.67795 176.02501C 292.30795 176.02501 284.71295 183.621 284.71295 192.99L284.71295 192.99L284.71295 298.323L278.27896 298.323L278.27896 184.711C 278.27896 175.512 271.12598 167.677 261.93195 167.35C 252.27994 167.007 244.34795 174.729 244.34795 184.304L244.34795 184.304L244.34795 306.056L239.01094 306.056L239.01094 211.193C 239.01094 202.37299 231.86095 195.222 223.03995 195.222C 214.21994 195.222 207.06895 202.372 207.06895 211.193L207.06895 211.193L207.06895 315.723L201.73195 315.723L201.73195 245.30699C 201.73195 237.70999 195.51495 231.258 187.91895 231.4C 180.55295 231.538 174.62395 237.55199 174.62395 244.95099L174.62395 244.95099L174.83495 416.662C 176.33795 433.66898 186.26695 448.25098 200.41995 456.21198C 200.43195 456.218 200.43895 456.231 200.43895 456.24496L200.43895 456.24496L200.43895 505.95297C 218.32794 509.91296 236.91995 511.99997 255.99995 511.99997C 275.11795 511.99997 293.74695 509.90396 311.66995 505.92996C 311.66995 480.09097 311.66995 458.55396 311.66995 458.55396C 311.66995 458.53796 311.67896 458.52594 311.69196 458.51895C 326.80896 451.76196 337.37497 436.59195 337.37497 418.99194L337.37497 418.99194L337.37497 318.82394C 337.37497 309.15295 329.84097 300.92395 320.17496 300.60294L320.17496 300.60294L320.175 300.603z" stroke="none" fill="#D47F6C" fill-rule="nonzero" />
		</g>
		<g>
            <path d="M320.175 300.603C 310.043 300.267 301.75098 308.376 301.75098 318.405L301.75098 318.405L301.75098 370.841C 301.73697 370.85602 301.72797 370.865 301.71497 370.88L301.71497 370.88L296.59897 371.236C 278.83798 372.47 263.69598 383.017 255.81796 397.88098L255.81796 397.88098L255.81796 511.998C 255.87897 511.998 255.93896 512 255.99997 512C 275.11798 512 293.74698 509.904 311.66998 505.93C 311.66998 480.091 311.66998 458.554 311.66998 458.554C 311.66998 458.538 311.679 458.52597 311.692 458.51898C 326.809 451.762 337.375 436.59198 337.375 418.99197L337.375 418.99197L337.375 318.82397C 337.375 309.15298 329.841 300.92398 320.175 300.60297L320.175 300.60297L320.175 300.603z" stroke="none" fill="#BC6455" fill-rule="nonzero" />
            <path d="M290.648 360.774C 290.66 360.75897 290.668 360.75098 290.68002 360.737L290.68002 360.737L290.68002 317.785C 290.68002 317.35602 290.691 316.92902 290.713 316.506C 291.281 305.733 300.14603 293.552 311.67 291.789C 311.7 291.785 318.643 291.789 318.643 291.789L318.643 291.789L318.643 192.98999C 318.643 183.62 311.047 176.025 301.678 176.025C 292.308 176.025 284.713 183.62099 284.713 192.98999L284.713 192.98999L284.713 298.323L278.27902 298.323L278.27902 184.711C 278.27902 175.512 271.12604 167.677 261.932 167.35C 259.78302 167.27301 257.728 167.61601 255.819 168.27101L255.819 168.27101L255.819 379.13403C 264.887 369.57602 277.002 362.90604 290.648 360.77405L290.648 360.77405L290.648 360.774z" stroke="none" fill="#BC6455" fill-rule="nonzero" />
		</g>
		<g>
            <path d="M320.173 273.851L242.541 212.73901C 242.541 212.73901 238.25 218.19801 238.228 218.21802C 229.715 226.18202 214.66 225.61401 205.845 219.39601C 205.498 219.15102 205.156 218.89601 204.819 218.63101L204.819 218.63101L171.07 192.06401C 171.05101 192.06502 171.04001 192.06502 171.02101 192.06601C 151.018 210.66101 120.77701 213.60301 97.558014 199.47401L97.558014 199.47401L104.544014 190.75601C 124.60701 202.18501 150.58202 198.46301 166.48201 180.919L166.48201 180.919L169.92601 177.119C 169.94601 177.117 169.95901 177.116 169.979 177.115L169.979 177.115L211.18001 209.54901C 219.06001 215.75201 230.561 214.253 236.56401 206.08301C 242.29001 198.29001 240.48502 187.28001 232.88501 181.298L232.88501 181.298L154.17801 119.340004C 140.348 108.453 121.893005 107.373 107.23301 115.07101C 107.22001 115.07801 107.20401 115.076004 107.19301 115.06701C 107.19301 115.06701 88.56401 100.40201 66.94701 83.38501C 41.674004 111.05001 22.392006 144.281 11.155006 181.02402C 27.680006 194.03201 40.20601 203.89302 40.20601 203.89302C 40.21701 203.90202 40.222008 203.91502 40.22001 203.92902C 37.722008 219.97302 43.03801 236.79501 55.472008 248.49503L55.472008 248.49503L190.26501 354.87103C 196.07901 359.44803 204.47202 358.50903 209.13602 352.80704C 213.94601 346.92703 212.72202 338.05103 206.75302 333.35205L206.75302 333.35205L151.42302 289.79706L154.72401 285.60306L236.85802 350.25906C 243.78902 355.71506 253.83002 354.51907 259.285 347.58905C 264.741 340.65805 263.545 330.61707 256.614 325.16104L256.614 325.16104L182.07501 266.48505L185.376 262.29105L281.043 337.60004C 288.567 343.52304 299.541 342.06604 305.241 334.27005C 310.671 326.84406 308.939 316.37704 301.711 310.68704L301.711 310.68704L212.439 240.41304L216.41899 235.35704L299.185 300.51004C 306.547 306.30603 317.214 305.03503 323.009 297.67404C 328.805 290.31305 327.535 279.64606 320.173 273.85104L320.173 273.85104L320.173 273.851z" stroke="none" fill="#FAA68E" fill-rule="nonzero" />
		</g>
		<g>
            <path d="M281.043 337.601C 288.567 343.52402 299.541 342.06702 305.241 334.27103C 310.671 326.84503 308.939 316.37802 301.711 310.68802L301.711 310.68802L255.818 274.562L255.818 317.74402L281.043 337.601z" stroke="none" fill="#E09380" fill-rule="nonzero" />
            <path d="M320.173 273.851L255.818 223.19101L255.818 266.37302L299.185 300.51102C 306.547 306.307 317.214 305.036 323.009 297.67502C 328.805 290.31302 327.535 279.64603 320.173 273.851z" stroke="none" fill="#E09380" fill-rule="nonzero" />
		</g>
	</g>
</g>
</svg>